<svg width="16" height="16" viewBox="0 0 16 16" fill="none" xmlns="http://www.w3.org/2000/svg">
<path d="M13.4444 6.50087V3.00087C13.4444 2.14176 12.748 1.44531 11.8889 1.44531H2.55556C1.69645 1.44531 1 2.14176 1 3.00087V9.08783C1 9.94694 1.69645 10.6434 2.55556 10.6434H3.77295V13.8898L7.01932 10.6434H7.22222M11.2379 12.6386L13.2669 14.6675V12.6386H13.4444C14.3036 12.6386 15 11.9421 15 11.083V8.44531C15 7.5862 14.3036 6.88976 13.4444 6.88976H8.77778C7.91867 6.88976 7.22222 7.5862 7.22222 8.44531V11.083C7.22222 11.9421 7.91867 12.6386 8.77778 12.6386H11.2379Z" stroke="#A4A2A0" stroke-width="1.5" stroke-linecap="round" stroke-linejoin="round"/>
</svg>
