<svg width="20" height="11" viewBox="0 0 20 11" fill="none" xmlns="http://www.w3.org/2000/svg">
<path d="M15 0.859375H12C11.45 0.859375 11 1.30937 11 1.85938C11 2.40937 11.45 2.85938 12 2.85938H15C16.65 2.85938 18 4.20937 18 5.85938C18 7.50938 16.65 8.85938 15 8.85938H12C11.45 8.85938 11 9.30937 11 9.85938C11 10.4094 11.45 10.8594 12 10.8594H15C17.76 10.8594 20 8.61938 20 5.85938C20 3.09938 17.76 0.859375 15 0.859375ZM6 5.85938C6 6.40938 6.45 6.85938 7 6.85938H13C13.55 6.85938 14 6.40938 14 5.85938C14 5.30937 13.55 4.85938 13 4.85938H7C6.45 4.85938 6 5.30937 6 5.85938ZM8 8.85938H5C3.35 8.85938 2 7.50938 2 5.85938C2 4.20937 3.35 2.85938 5 2.85938H8C8.55 2.85938 9 2.40937 9 1.85938C9 1.30937 8.55 0.859375 8 0.859375H5C2.24 0.859375 0 3.09938 0 5.85938C0 8.61938 2.24 10.8594 5 10.8594H8C8.55 10.8594 9 10.4094 9 9.85938C9 9.30937 8.55 8.85938 8 8.85938Z" fill="#C2C0BD"/>
</svg>
