<svg width="22" height="22" viewBox="0 0 22 22" fill="none" xmlns="http://www.w3.org/2000/svg">
<rect opacity="0.8" x="2.11133" y="3.88672" width="17.7778" height="14.2222" rx="1.77778" fill="#DDDAD7"/>
<path opacity="0.8" d="M13.7986 15.5707L9.53823 11.3104C9.36466 11.1368 9.08325 11.1368 8.90969 11.3104L4.64934 15.5707C4.36935 15.8507 4.56765 16.3294 4.96361 16.3294H13.4843C13.8803 16.3294 14.0786 15.8507 13.7986 15.5707Z" fill="#484746"/>
<path opacity="0.4" d="M17.3544 15.5703L14.8718 13.0877C14.6982 12.9141 14.4168 12.9141 14.2432 13.0877L11.7607 15.5703C11.4807 15.8503 11.679 16.329 12.0749 16.329H17.0401C17.436 16.329 17.6343 15.8503 17.3544 15.5703Z" fill="#484746"/>
<circle opacity="0.8" cx="16.3344" cy="7.44184" r="1.77778" fill="#484746"/>
</svg>
