<svg width="54" height="54" viewBox="0 0 54 54" fill="none" xmlns="http://www.w3.org/2000/svg">
<rect x="0.5" y="0.5" width="53" height="53" rx="26.5" fill="white"/>
<g clip-path="url(#clip0_4175_57781)">
<circle cx="27.5" cy="27" r="10" fill="#2BC0EF"/>
<path d="M22.207 27H32.7953" stroke="white" stroke-width="1.84615"/>
<path d="M27.5 21.707L27.5 32.2953" stroke="white" stroke-width="1.84615"/>
</g>
<path d="M29.8743 16.8019L31.781 20.6152C32.041 21.146 32.7343 21.6552 33.3193 21.7527L36.7751 22.3269C38.9851 22.6952 39.5051 24.2985 37.9126 25.8802L35.226 28.5669C34.771 29.0219 34.5218 29.8994 34.6626 30.5277L35.4318 33.8535C36.0385 36.486 34.641 37.5044 32.3118 36.1285L29.0726 34.211C28.4876 33.8644 27.5235 33.8644 26.9276 34.211L23.6885 36.1285C21.3701 37.5044 19.9618 36.4752 20.5685 33.8535L21.3376 30.5277C21.4785 29.8994 21.2293 29.0219 20.7743 28.5669L18.0876 25.8802C16.506 24.2985 17.0151 22.6952 19.2251 22.3269L22.681 21.7527C23.2551 21.6552 23.9485 21.146 24.2085 20.6152L26.1151 16.8019C27.1551 14.7327 28.8451 14.7327 29.8743 16.8019Z" fill="#FFCD4B"/>
<rect x="0.5" y="0.5" width="53" height="53" rx="26.5" stroke="#EFEDEA"/>
<defs>
<clipPath id="clip0_4175_57781">
<rect width="24" height="24" fill="white" transform="translate(15 15)"/>
</clipPath>
</defs>
</svg>
