<svg width="28" height="28" viewBox="0 0 28 28" fill="none" xmlns="http://www.w3.org/2000/svg">
<path d="M0.664062 22.087V26.5901C0.664062 27.0049 0.989943 27.3307 1.4047 27.3307H5.90778C6.10035 27.3307 6.29291 27.2567 6.42623 27.1085L21.6728 11.8759C22.1858 11.3634 22.186 10.532 21.6733 10.0193L17.9751 6.32111C17.4625 5.80855 16.6315 5.80855 16.1189 6.32111L0.886254 21.5538C0.738126 21.7019 0.664062 21.8796 0.664062 22.087ZM26.8975 6.65212C27.4752 6.07442 27.4752 5.14122 26.8975 4.56352L23.4313 1.09734C22.8536 0.519638 21.9204 0.519638 21.3427 1.09734L19.56 2.87999C19.0475 3.39256 19.0475 4.22358 19.56 4.73615L23.2586 8.43478C23.7712 8.94734 24.6022 8.94734 25.1148 8.43478L26.8975 6.65212Z" fill="white"/>
</svg>
