<svg width="24" height="24" viewBox="0 0 24 24" fill="none" xmlns="http://www.w3.org/2000/svg">
<g clip-path="url(#clip0_1178_5586)">
<path fill-rule="evenodd" clip-rule="evenodd" d="M12 15.82L17 18V6C17 5.45 16.55 5 16 5H8C7.45 5 7 5.45 7 6V18L12 15.82Z" fill="#2478F6" fill-opacity="0.3"/>
<path d="M17 3H7C5.9 3 5 3.9 5 5V21L12 18L19 21V5C19 3.9 18.1 3 17 3ZM17 18L12 15.82L7 18V6C7 5.45 7.45 5 8 5H16C16.55 5 17 5.45 17 6V18Z" fill="#2478F6"/>
</g>
<defs>
<clipPath id="clip0_1178_5586">
<rect width="24" height="24" fill="white"/>
</clipPath>
</defs>
</svg>
