<svg width="16" height="10" viewBox="0 0 16 10" fill="none" xmlns="http://www.w3.org/2000/svg">
<path d="M5.57279 8.48681L2.11336 5L5.57279 1.51319C5.91873 1.16451 5.91873 0.610192 5.57279 0.261511C5.22685 -0.0871703 4.67688 -0.0871703 4.33094 0.261511L0.259457 4.36522C-0.0864858 4.7139 -0.0864858 5.27716 0.259457 5.62584L4.33094 9.73849C4.67688 10.0872 5.22685 10.0872 5.57279 9.73849C5.91873 9.38981 5.91873 8.83549 5.57279 8.48681ZM10.4272 8.48681L13.8866 5L10.4272 1.51319C10.0813 1.16451 10.0813 0.610192 10.4272 0.261511C10.7732 -0.0871703 11.3231 -0.0871703 11.6691 0.261511L15.7405 4.36522C16.0865 4.7139 16.0865 5.27716 15.7405 5.62584L11.6691 9.73849C11.3231 10.0872 10.7732 10.0872 10.4272 9.73849C10.0813 9.38981 10.0813 8.83549 10.4272 8.48681Z" fill="#484746"/>
</svg>
