<svg width="158" height="30" viewBox="0 0 158 30" fill="none" xmlns="http://www.w3.org/2000/svg">
<g filter="url(#filter0_i_3879_51302)">
<path d="M27.529 0C28.0656 0 28.6022 0.138533 28.9874 0.415598L38.1374 6.9882L43.1871 10.6362C49.3237 15.0385 49.709 22.1806 43.6686 26.5059C40.6141 28.8456 36.5138 30 32.4273 30C28.3408 30 24.4193 28.8917 21.3923 26.7214L16.9205 23.5044C16.6729 23.3197 16.3014 23.2119 15.9298 23.2119C15.5859 23.2119 15.2419 23.3043 14.9667 23.5044L11.0591 26.3058C10.6738 26.5829 10.1372 26.7214 9.61432 26.7214C9.09147 26.7214 8.5411 26.5829 8.15584 26.3058L0.588211 20.8415C-0.19607 20.2873 -0.19607 19.3022 0.588211 18.7327L5.45901 15.2386L26.0705 0.415598C26.4557 0.138533 26.9923 0 27.529 0Z" fill="#ACE5FC"/>
</g>
<path d="M69.5457 4.88201H66.3086V9.64296H64V12.4698H66.3086V23.3307H69.5457V12.4698H71.8544V9.64296H69.5457V4.88201Z" fill="#2BC0EF"/>
<path d="M84.3773 9.84136C83.6746 9.44462 82.7964 9.24624 81.7675 9.24624C80.7387 9.24624 79.8353 9.49421 79.1076 10.0149C78.4551 10.4613 77.9783 11.0812 77.5768 11.7755V0.121094H74.3146V23.3307H77.5768V14.9991C77.5768 14.3791 77.7023 13.8584 77.9783 13.3873C78.2544 12.9161 78.6057 12.569 79.0574 12.321C79.5091 12.0731 80.0611 11.9243 80.6634 11.9243C81.5668 11.9243 82.2192 12.1722 82.6458 12.693C83.0473 13.2137 83.2731 13.9824 83.2731 14.9743V23.3059H86.5604V14.5279C86.5604 13.3625 86.3848 12.3706 86.0084 11.6019C85.6571 10.8084 85.105 10.2381 84.4024 9.84136H84.3773Z" fill="#2BC0EF"/>
<path d="M99.3067 10.1898C98.2779 9.64424 97.0483 9.34668 95.5678 9.34668C94.0872 9.34668 92.8325 9.64424 91.7535 10.2146C90.6744 10.8097 89.8213 11.628 89.2441 12.6942C88.6418 13.7605 88.3658 15.0251 88.3658 16.4633C88.3658 17.9015 88.6669 19.1413 89.2441 20.2076C89.8213 21.2738 90.6494 22.1169 91.7284 22.712C92.8074 23.3072 94.037 23.6047 95.4423 23.6047C97.0483 23.6047 98.4285 23.3072 99.5577 22.6873C100.687 22.0673 101.64 21.1499 102.368 19.91L99.5577 18.7694C99.106 19.5133 98.5539 20.0588 97.9015 20.406C97.249 20.7531 96.4711 20.9515 95.5928 20.9515C94.7146 20.9515 94.037 20.7779 93.4348 20.406C92.8325 20.0588 92.4059 19.5381 92.1048 18.8438C91.904 18.3726 91.7786 17.8023 91.7284 17.1824H102.469C102.469 17.1824 102.494 16.984 102.519 16.7857C102.519 16.6121 102.519 16.4385 102.519 16.2897C102.519 14.8267 102.243 13.5621 101.691 12.5206C101.139 11.4792 100.361 10.6857 99.3318 10.1154L99.3067 10.1898ZM91.7535 15.0499C91.8288 14.6284 91.9542 14.2316 92.1048 13.8845C92.4059 13.215 92.8576 12.6942 93.4348 12.3471C94.0119 11.9999 94.7146 11.8015 95.5427 11.8015C96.2202 11.8015 96.8224 11.9503 97.3243 12.2479C97.8262 12.5454 98.2277 12.967 98.5288 13.4877C98.7798 13.934 98.8801 14.4548 98.9303 15.0251H91.7535V15.0499Z" fill="#2BC0EF"/>
<path d="M116.344 10.1397C115.315 9.56937 114.211 9.29661 113.007 9.29661C111.802 9.29661 110.799 9.59417 109.92 10.1645C109.243 10.6108 108.716 11.2803 108.289 12.0242V9.64376H105.002V29.8778H108.289V20.951C108.716 21.7197 109.243 22.3644 109.92 22.8108C110.799 23.4059 111.827 23.6786 113.007 23.6786C114.186 23.6786 115.315 23.4059 116.344 22.8356C117.373 22.2652 118.201 21.4469 118.804 20.3559C119.431 19.2648 119.732 17.9754 119.732 16.4628C119.732 14.9502 119.431 13.636 118.804 12.5698C118.176 11.5035 117.348 10.6852 116.344 10.1149V10.1397ZM115.792 18.8185C115.416 19.4632 114.914 19.9591 114.262 20.2815C113.609 20.6039 112.932 20.7774 112.179 20.7774C111.551 20.7774 110.949 20.6039 110.347 20.2815C109.745 19.9591 109.243 19.4632 108.866 18.8433C108.465 18.1986 108.289 17.4299 108.289 16.4876C108.289 15.5454 108.49 14.7767 108.866 14.1319C109.268 13.4872 109.745 13.0161 110.347 12.6937C110.949 12.3714 111.551 12.1978 112.179 12.1978C112.932 12.1978 113.634 12.3714 114.262 12.6937C114.889 13.0161 115.391 13.512 115.792 14.1567C116.169 14.8015 116.369 15.5701 116.369 16.4876C116.369 17.4051 116.169 18.1738 115.792 18.8185Z" fill="#2BC0EF"/>
<path d="M132.557 10.2642C131.453 9.66904 130.173 9.34668 128.742 9.34668C127.312 9.34668 126.032 9.64424 124.928 10.2642C123.799 10.8593 122.921 11.7024 122.268 12.7686C121.616 13.8349 121.29 15.0747 121.29 16.4881C121.29 17.9015 121.616 19.1165 122.268 20.1828C122.921 21.2738 123.799 22.1169 124.928 22.712C126.057 23.3072 127.337 23.6295 128.742 23.6295C130.148 23.6295 131.428 23.332 132.557 22.712C133.661 22.1169 134.564 21.2738 135.217 20.1828C135.869 19.0917 136.22 17.8767 136.22 16.4881C136.22 15.0995 135.894 13.8349 135.217 12.7686C134.564 11.7024 133.661 10.8593 132.557 10.2642ZM132.331 18.7446C131.98 19.3893 131.478 19.8852 130.85 20.2572C130.223 20.6291 129.52 20.8027 128.768 20.8027C128.015 20.8027 127.287 20.6291 126.66 20.2572C126.032 19.8852 125.556 19.3893 125.179 18.7446C124.828 18.0999 124.627 17.356 124.627 16.4881C124.627 15.6202 124.803 14.8763 125.179 14.2316C125.53 13.5869 126.032 13.0662 126.66 12.719C127.287 12.3719 127.99 12.1735 128.768 12.1735C129.545 12.1735 130.223 12.3471 130.85 12.719C131.478 13.0662 131.98 13.5869 132.331 14.2316C132.682 14.8763 132.883 15.645 132.883 16.4881C132.883 17.3312 132.707 18.0999 132.331 18.7446Z" fill="#2BC0EF"/>
<path d="M148.765 10.2642C147.661 9.66904 146.381 9.34668 144.951 9.34668C143.521 9.34668 142.241 9.64424 141.137 10.2642C140.007 10.8593 139.129 11.7024 138.477 12.7686C137.824 13.8349 137.498 15.0747 137.498 16.4881C137.498 17.9015 137.824 19.1165 138.477 20.1828C139.129 21.2738 140.007 22.1169 141.137 22.712C142.266 23.3072 143.546 23.6295 144.951 23.6295C146.356 23.6295 147.636 23.332 148.765 22.712C149.869 22.1169 150.773 21.2738 151.425 20.1828C152.078 19.0917 152.429 17.8767 152.429 16.4881C152.429 15.0995 152.103 13.8349 151.425 12.7686C150.773 11.7024 149.869 10.8593 148.765 10.2642ZM148.539 18.7446C148.188 19.3893 147.686 19.8852 147.059 20.2572C146.431 20.6291 145.729 20.8027 144.976 20.8027C144.223 20.8027 143.495 20.6291 142.868 20.2572C142.241 19.8852 141.764 19.3893 141.388 18.7446C141.036 18.0999 140.835 17.356 140.835 16.4881C140.835 15.6202 141.011 14.8763 141.388 14.2316C141.739 13.5869 142.241 13.0662 142.868 12.719C143.495 12.3719 144.198 12.1735 144.976 12.1735C145.754 12.1735 146.431 12.3471 147.059 12.719C147.686 13.0662 148.188 13.5869 148.539 14.2316C148.891 14.8763 149.091 15.645 149.091 16.4881C149.091 17.3312 148.916 18.0999 148.539 18.7446Z" fill="#2BC0EF"/>
<path d="M157.999 0.121094H154.737V23.3307H157.999V0.121094Z" fill="#2BC0EF"/>
<defs>
<filter id="filter0_i_3879_51302" x="0" y="0" width="48" height="30" filterUnits="userSpaceOnUse" color-interpolation-filters="sRGB">
<feFlood flood-opacity="0" result="BackgroundImageFix"/>
<feBlend mode="normal" in="SourceGraphic" in2="BackgroundImageFix" result="shape"/>
<feColorMatrix in="SourceAlpha" type="matrix" values="0 0 0 0 0 0 0 0 0 0 0 0 0 0 0 0 0 0 127 0" result="hardAlpha"/>
<feOffset dy="4.54738"/>
<feComposite in2="hardAlpha" operator="arithmetic" k2="-1" k3="1"/>
<feColorMatrix type="matrix" values="0 0 0 0 0.2 0 0 0 0 0.713726 0 0 0 0 0.933333 0 0 0 1 0"/>
<feBlend mode="normal" in2="shape" result="effect1_innerShadow_3879_51302"/>
</filter>
</defs>
</svg>
