<svg width="48" height="30" viewBox="0 0 48 30" fill="none" xmlns="http://www.w3.org/2000/svg">
<g filter="url(#filter0_i_3733_50194)">
<path d="M27.529 0C28.0656 0 28.6022 0.138533 28.9874 0.415598L38.1374 6.9882L43.1871 10.6362C49.3237 15.0385 49.709 22.1806 43.6686 26.5059C40.6141 28.8456 36.5138 30 32.4273 30C28.3408 30 24.4193 28.8917 21.3923 26.7214L16.9205 23.5044C16.6729 23.3197 16.3014 23.2119 15.9298 23.2119C15.5859 23.2119 15.2419 23.3043 14.9667 23.5044L11.0591 26.3058C10.6738 26.5829 10.1372 26.7214 9.61432 26.7214C9.09147 26.7214 8.5411 26.5829 8.15584 26.3058L0.588211 20.8415C-0.19607 20.2873 -0.19607 19.3022 0.588211 18.7327L5.45901 15.2386L26.0705 0.415598C26.4557 0.138533 26.9923 0 27.529 0Z" fill="#ACE5FC"/>
</g>
<defs>
<filter id="filter0_i_3733_50194" x="0" y="0" width="48" height="30" filterUnits="userSpaceOnUse" color-interpolation-filters="sRGB">
<feFlood flood-opacity="0" result="BackgroundImageFix"/>
<feBlend mode="normal" in="SourceGraphic" in2="BackgroundImageFix" result="shape"/>
<feColorMatrix in="SourceAlpha" type="matrix" values="0 0 0 0 0 0 0 0 0 0 0 0 0 0 0 0 0 0 127 0" result="hardAlpha"/>
<feOffset dy="4.54738"/>
<feComposite in2="hardAlpha" operator="arithmetic" k2="-1" k3="1"/>
<feColorMatrix type="matrix" values="0 0 0 0 0.2 0 0 0 0 0.713726 0 0 0 0 0.933333 0 0 0 1 0"/>
<feBlend mode="normal" in2="shape" result="effect1_innerShadow_3733_50194"/>
</filter>
</defs>
</svg>
