<svg width="24" height="24" viewBox="0 0 24 24" fill="none" xmlns="http://www.w3.org/2000/svg">
<path d="M23.149 0.868674C22.4588 0.178496 21.3439 0.178496 20.6537 0.868674L11.9999 9.50475L3.34615 0.850977C2.65597 0.160799 1.54106 0.160799 0.850886 0.850977C0.160707 1.54116 0.160707 2.65606 0.850886 3.34624L9.50466 12L0.850886 20.6538C0.160707 21.344 0.160707 22.4589 0.850886 23.149C1.54106 23.8392 2.65597 23.8392 3.34615 23.149L11.9999 14.4953L20.6537 23.149C21.3439 23.8392 22.4588 23.8392 23.149 23.149C23.8391 22.4589 23.8391 21.344 23.149 20.6538L14.4952 12L23.149 3.34624C23.8214 2.67376 23.8214 1.54116 23.149 0.868674Z" fill="#484746"/>
</svg>
