<svg width="80" height="26" viewBox="0 0 80 26" fill="none" xmlns="http://www.w3.org/2000/svg">
<path d="M4.7197 4.15991H1.96476V8.3199H0V10.7899H1.96476V20.2799H4.7197V10.7899H6.68447V8.3199H4.7197V4.15991Z" fill="white"/>
<path d="M17.3412 8.49332C16.7432 8.14665 15.9957 7.97332 15.1201 7.97332C14.2445 7.97332 13.4757 8.18998 12.8564 8.64498C12.3011 9.03498 11.8953 9.57665 11.5536 10.1833V0H8.77734V20.28H11.5536V13C11.5536 12.4583 11.6604 12.0033 11.8953 11.5916C12.1303 11.18 12.4292 10.8766 12.8137 10.66C13.1981 10.4433 13.6679 10.3133 14.1804 10.3133C14.9493 10.3133 15.5045 10.53 15.8676 10.985C16.2093 11.44 16.4015 12.1116 16.4015 12.9783V20.2583H19.1991V12.5883C19.1991 11.57 19.0496 10.7033 18.7293 10.0316C18.4303 9.33832 17.9605 8.83998 17.3625 8.49332H17.3412Z" fill="white"/>
<path d="M30.0481 8.79672C29.1725 8.32006 28.126 8.06006 26.866 8.06006C25.606 8.06006 24.5382 8.32006 23.6199 8.81839C22.7016 9.33839 21.9755 10.0534 21.4843 10.9851C20.9717 11.9167 20.7368 13.0217 20.7368 14.2784C20.7368 15.535 20.9931 16.6184 21.4843 17.55C21.9755 18.4817 22.6802 19.2184 23.5985 19.7384C24.5169 20.2584 25.5633 20.5184 26.7592 20.5184C28.126 20.5184 29.3006 20.2584 30.2617 19.7167C31.2227 19.175 32.0342 18.3734 32.6535 17.29L30.2617 16.2934C29.8772 16.9434 29.4074 17.42 28.8521 17.7234C28.2969 18.0267 27.6348 18.2 26.8874 18.2C26.1399 18.2 25.5633 18.0484 25.0508 17.7234C24.5382 17.42 24.1752 16.965 23.9189 16.3584C23.748 15.9467 23.6413 15.4484 23.5985 14.9067H32.739C32.739 14.9067 32.7603 14.7334 32.7817 14.56C32.7817 14.4084 32.7817 14.2567 32.7817 14.1267C32.7817 12.8484 32.5468 11.7434 32.0769 10.8334C31.6071 9.92339 30.945 9.23006 30.0694 8.73172L30.0481 8.79672ZM23.6199 13.0434C23.684 12.675 23.7907 12.3284 23.9189 12.0251C24.1752 11.4401 24.5596 10.9851 25.0508 10.6817C25.5419 10.3784 26.1399 10.2051 26.8447 10.2051C27.4213 10.2051 27.9338 10.3351 28.361 10.5951C28.7881 10.8551 29.1298 11.2234 29.3861 11.6784C29.5996 12.0684 29.685 12.5234 29.7277 13.0217H23.6199V13.0434Z" fill="white"/>
<path d="M44.549 8.75339C43.6734 8.25506 42.7337 8.01672 41.7086 8.01672C40.6835 8.01672 39.8293 8.27672 39.0818 8.77506C38.5052 9.16506 38.0567 9.75005 37.6936 10.4001V8.32006H34.896V26H37.6936V18.2C38.0567 18.8717 38.5052 19.435 39.0818 19.825C39.8293 20.345 40.7049 20.5834 41.7086 20.5834C42.7123 20.5834 43.6734 20.345 44.549 19.8467C45.4246 19.3484 46.1293 18.6334 46.6419 17.68C47.1758 16.7267 47.432 15.6 47.432 14.2784C47.432 12.9567 47.1758 11.8084 46.6419 10.8767C46.108 9.94505 45.4032 9.23005 44.549 8.73172V8.75339ZM44.0791 16.3367C43.7588 16.9 43.3317 17.3334 42.7764 17.615C42.2212 17.8967 41.6445 18.0484 41.0039 18.0484C40.4699 18.0484 39.9574 17.8967 39.4449 17.615C38.9323 17.3334 38.5052 16.9 38.1848 16.3584C37.8431 15.795 37.6936 15.1234 37.6936 14.3C37.6936 13.4767 37.8645 12.805 38.1848 12.2417C38.5265 11.6784 38.9323 11.2667 39.4449 10.9851C39.9574 10.7034 40.4699 10.5517 41.0039 10.5517C41.6445 10.5517 42.2425 10.7034 42.7764 10.9851C43.3103 11.2667 43.7374 11.7 44.0791 12.2634C44.3995 12.8267 44.5703 13.4984 44.5703 14.3C44.5703 15.1017 44.3995 15.7734 44.0791 16.3367V16.3367Z" fill="white"/>
<path d="M58.3448 8.86172C57.4051 8.34172 56.3159 8.06006 55.0986 8.06006C53.8813 8.06006 52.7922 8.32006 51.8525 8.86172C50.8915 9.38172 50.144 10.1184 49.5887 11.0501C49.0335 11.9817 48.7559 13.065 48.7559 14.3C48.7559 15.535 49.0335 16.5967 49.5887 17.5284C50.144 18.4817 50.8915 19.2184 51.8525 19.7384C52.8135 20.2584 53.9027 20.54 55.0986 20.54C56.2946 20.54 57.3837 20.28 58.3448 19.7384C59.2844 19.2184 60.0533 18.4817 60.6085 17.5284C61.1638 16.575 61.4628 15.5134 61.4628 14.3C61.4628 13.0867 61.1851 11.9817 60.6085 11.0501C60.0533 10.1184 59.2844 9.38172 58.3448 8.86172ZM58.1526 16.2717C57.8536 16.835 57.4264 17.2684 56.8925 17.5934C56.3586 17.9184 55.7607 18.07 55.12 18.07C54.4793 18.07 53.86 17.9184 53.3261 17.5934C52.7922 17.2684 52.3864 16.835 52.0661 16.2717C51.7671 15.7084 51.5962 15.0584 51.5962 14.3C51.5962 13.5417 51.7457 12.8917 52.0661 12.3284C52.365 11.7651 52.7922 11.3101 53.3261 11.0067C53.86 10.7034 54.4579 10.5301 55.12 10.5301C55.782 10.5301 56.3586 10.6817 56.8925 11.0067C57.4264 11.3101 57.8536 11.7651 58.1526 12.3284C58.4515 12.8917 58.6224 13.5634 58.6224 14.3C58.6224 15.0367 58.4729 15.7084 58.1526 16.2717V16.2717Z" fill="white"/>
<path d="M72.1411 8.86172C71.2015 8.34172 70.1123 8.06006 68.895 8.06006C67.6777 8.06006 66.5886 8.32006 65.6489 8.86172C64.6879 9.38172 63.9404 10.1184 63.3851 11.0501C62.8299 11.9817 62.5522 13.065 62.5522 14.3C62.5522 15.535 62.8299 16.5967 63.3851 17.5284C63.9404 18.4817 64.6879 19.2184 65.6489 19.7384C66.6099 20.2584 67.6991 20.54 68.895 20.54C70.091 20.54 71.1801 20.28 72.1411 19.7384C73.0808 19.2184 73.8496 18.4817 74.4049 17.5284C74.9602 16.575 75.2591 15.5134 75.2591 14.3C75.2591 13.0867 74.9815 11.9817 74.4049 11.0501C73.8496 10.1184 73.0808 9.38172 72.1411 8.86172ZM71.9489 16.2717C71.65 16.835 71.2228 17.2684 70.6889 17.5934C70.155 17.9184 69.5571 18.07 68.9164 18.07C68.2757 18.07 67.6564 17.9184 67.1225 17.5934C66.5886 17.2684 66.1828 16.835 65.8624 16.2717C65.5635 15.7084 65.3926 15.0584 65.3926 14.3C65.3926 13.5417 65.5421 12.8917 65.8624 12.3284C66.1614 11.7651 66.5886 11.3101 67.1225 11.0067C67.6564 10.7034 68.2543 10.5301 68.9164 10.5301C69.5784 10.5301 70.155 10.6817 70.6889 11.0067C71.2228 11.3101 71.65 11.7651 71.9489 12.3284C72.2479 12.8917 72.4188 13.5634 72.4188 14.3C72.4188 15.0367 72.2693 15.7084 71.9489 16.2717V16.2717Z" fill="white"/>
<path d="M79.9999 0H77.2236V20.28H79.9999V0Z" fill="white"/>
</svg>
