<svg width="24" height="24" viewBox="0 0 24 24" fill="none" xmlns="http://www.w3.org/2000/svg">
<path d="M20.9999 12.1689C20.9999 11.3903 20.9367 10.8221 20.8 10.2329H11.9089V13.7472H17.1278C17.0226 14.6206 16.4544 15.9358 15.1918 16.8196L15.1741 16.9373L17.9853 19.1151L18.18 19.1345C19.9687 17.4825 20.9999 15.0519 20.9999 12.1689Z" fill="#4285F4"/>
<path d="M11.909 21.4288C14.4658 21.4288 16.6123 20.587 18.1801 19.135L15.1919 16.8201C14.3922 17.3778 13.319 17.7671 11.909 17.7671C9.40482 17.7671 7.2794 16.1152 6.52174 13.8319L6.41069 13.8413L3.48757 16.1036L3.44934 16.2098C5.00658 19.3033 8.20527 21.4288 11.909 21.4288Z" fill="#34A853"/>
<path d="M6.5217 13.8315C6.32178 13.2423 6.20609 12.6109 6.20609 11.9586C6.20609 11.3062 6.32178 10.6749 6.51118 10.0857L6.50588 9.96019L3.54613 7.66162L3.4493 7.70768C2.80748 8.99138 2.43921 10.4329 2.43921 11.9586C2.43921 13.4843 2.80748 14.9258 3.4493 16.2095L6.5217 13.8315Z" fill="#FBBC05"/>
<path d="M11.909 6.15064C13.6872 6.15064 14.8867 6.91874 15.5707 7.56063L18.2432 4.95116C16.6019 3.42547 14.4658 2.48901 11.909 2.48901C8.20527 2.48901 5.00658 4.61444 3.44934 7.70788L6.51123 10.0859C7.2794 7.80261 9.40482 6.15064 11.909 6.15064Z" fill="#EB4335"/>
</svg>
