<svg width="20" height="20" viewBox="0 0 20 20" fill="none" xmlns="http://www.w3.org/2000/svg">
<path d="M10 5C10.55 5 11 5.45 11 6L11 10C11 10.55 10.55 11 10 11C9.45 11 9 10.55 9 10L9 6C9 5.45 9.45 5 10 5ZM9.99 1.74671e-06C4.47 7.8156e-07 -7.83308e-07 4.48 -1.74846e-06 10C-2.7136e-06 15.52 4.47 20 9.99 20C15.52 20 20 15.52 20 10C20 4.48 15.52 2.7136e-06 9.99 1.74671e-06ZM10 18C5.58 18 2 14.42 2 10C2 5.58 5.58 2 10 2C14.42 2 18 5.58 18 10C18 14.42 14.42 18 10 18ZM11 14C11 14.5523 10.5523 15 10 15V15C9.44771 15 9 14.5523 9 14V14C9 13.4477 9.44771 13 10 13V13C10.5523 13 11 13.4477 11 14V14Z" fill="#D30D00"/>
</svg>
